<?xml version="1.0" standalone="no"?>
<!DOCTYPE svg PUBLIC "-//W3C//DTD SVG 20010904//EN"
 "http://www.w3.org/TR/2001/REC-SVG-20010904/DTD/svg10.dtd">
<svg version="1.0" xmlns="http://www.w3.org/2000/svg"
 width="200.000000pt" height="200.000000pt" viewBox="0 0 200.000000 200.000000"
 preserveAspectRatio="xMidYMid meet">

<g transform="translate(0.000000,200.000000) scale(0.100000,-0.100000)"
fill="currentColor" stroke="none">
<path d="M892 1723 c-43 -21 -71 -57 -78 -103 -5 -30 -13 -40 -52 -61 -70 -36
-155 -127 -190 -201 -40 -84 -52 -148 -52 -271 0 -120 -12 -152 -87 -242 -28
-33 -58 -75 -68 -94 -23 -45 -17 -127 13 -168 37 -51 75 -63 210 -63 l121 0
16 -57 c13 -44 29 -68 74 -114 84 -84 176 -107 288 -74 87 26 174 120 193 210
l6 30 129 5 c104 4 136 9 162 24 65 40 92 139 57 208 -9 18 -39 59 -67 92 -75
91 -87 123 -87 243 0 125 -13 188 -54 273 -36 75 -119 163 -188 199 -37 20
-47 31 -51 58 -8 45 -40 87 -81 107 -46 22 -169 21 -214 -1z m178 -153 c7 -60
13 -67 76 -95 69 -31 148 -110 181 -182 23 -50 27 -76 33 -203 8 -173 17 -199
106 -313 65 -81 74 -103 52 -125 -17 -17 -1019 -17 -1036 0 -23 23 -12 50 48
124 92 112 103 142 110 315 5 139 7 149 38 212 37 74 97 133 170 168 71 33 82
46 82 94 0 23 3 45 7 49 4 4 34 6 68 4 l60 -3 5 -45z m90 -1071 c0 -12 -19
-41 -43 -64 -47 -48 -92 -62 -154 -50 -44 8 -123 81 -123 114 0 21 3 21 160
21 157 0 160 0 160 -21z"/>
<path d="M152 1443 c-20 -8 -71 -116 -87 -185 -28 -120 -16 -234 37 -346 35
-75 59 -102 91 -102 29 0 57 29 57 57 0 11 -11 40 -24 64 -69 124 -73 257 -12
386 30 63 34 78 24 96 -18 35 -48 46 -86 30z"/>
<path d="M1770 1430 c-27 -27 -25 -39 10 -108 62 -117 62 -256 0 -376 -45 -89
-38 -136 22 -136 34 0 61 28 94 98 59 126 67 278 21 406 -45 122 -98 165 -147
116z"/>
<path d="M317 1279 c-65 -38 -60 -276 6 -306 25 -12 56 -3 77 21 11 15 11 25
1 68 -9 33 -11 74 -6 120 5 59 4 73 -11 89 -19 21 -40 24 -67 8z"/>
<path d="M1624 1282 c-20 -13 -32 -47 -23 -67 12 -30 10 -109 -3 -159 -11 -40
-10 -47 7 -66 22 -25 67 -26 87 -2 52 60 49 260 -5 294 -15 10 -49 10 -63 0z"/>
</g>
</svg>
