<?xml version="1.0" standalone="no"?>
<!DOCTYPE svg PUBLIC "-//W3C//DTD SVG 20010904//EN"
 "http://www.w3.org/TR/2001/REC-SVG-20010904/DTD/svg10.dtd">
<svg version="1.0" xmlns="http://www.w3.org/2000/svg"
 width="200.000000pt" height="200.000000pt" viewBox="0 0 200.000000 200.000000"
 preserveAspectRatio="xMidYMid meet">

<g transform="translate(0.000000,200.000000) scale(0.100000,-0.100000)"
fill="currentColor" stroke="none">
<path d="M715 1928 c-144 -27 -285 -136 -350 -271 -96 -201 -59 -414 100 -573
l71 -70 -71 -38 c-138 -73 -252 -190 -321 -331 -65 -133 -75 -182 -81 -397
l-6 -188 582 0 c319 0 581 3 581 7 0 4 -26 33 -57 65 l-57 58 -458 0 -458 0 0
93 c0 131 15 198 66 306 92 191 263 312 484 343 136 19 269 -11 404 -93 l69
-41 41 42 41 41 -34 30 c-19 16 -68 46 -108 67 l-74 38 45 32 c48 35 100 100
136 172 69 136 66 316 -8 454 -38 72 -145 175 -215 209 -104 50 -215 66 -322
45z m258 -153 c76 -38 158 -126 188 -202 29 -75 31 -196 3 -265 -42 -104 -119
-180 -222 -222 -68 -27 -190 -26 -265 3 -76 30 -164 111 -202 188 -27 53 -30
67 -30 158 0 87 3 107 26 156 47 99 128 171 232 205 26 9 74 13 127 11 70 -3
96 -9 143 -32z"/>
<path d="M1500 752 c0 -64 -2 -70 -25 -80 -40 -18 -48 -15 -95 33 l-44 45 -43
-42 -43 -42 46 -47 c45 -46 46 -48 34 -83 l-12 -36 -69 0 -69 0 0 -60 0 -60
69 0 69 0 12 -36 c12 -35 11 -37 -34 -83 l-46 -47 45 -44 45 -44 48 47 c46 45
49 47 80 35 32 -12 32 -13 32 -80 l0 -68 60 0 60 0 0 68 0 68 36 13 c36 13 37
13 83 -33 l46 -46 43 42 42 43 -46 46 c-46 46 -46 47 -33 83 l13 36 68 0 68 0
0 60 0 60 -68 0 c-67 0 -68 0 -80 32 -12 31 -10 34 35 80 l47 48 -44 45 -44
45 -46 -45 c-49 -49 -56 -51 -95 -33 -23 10 -25 16 -25 80 l0 68 -60 0 -60 0
0 -68z m139 -217 c40 -34 56 -84 41 -129 -31 -95 -151 -121 -214 -45 -20 24
-26 41 -26 81 0 44 4 54 34 84 30 30 40 34 84 34 39 0 57 -6 81 -25z"/>
</g>
</svg>
