<?xml version="1.0" standalone="no"?>
<!DOCTYPE svg PUBLIC "-//W3C//DTD SVG 20010904//EN"
 "http://www.w3.org/TR/2001/REC-SVG-20010904/DTD/svg10.dtd">
<svg version="1.0" xmlns="http://www.w3.org/2000/svg"
 width="200.000000pt" height="200.000000pt" viewBox="0 0 200.000000 200.000000"
 preserveAspectRatio="xMidYMid meet">

<g transform="translate(0.000000,200.000000) scale(0.100000,-0.100000)"
fill="currentColor" stroke="none">
<path d="M1551 1884 c-222 -37 -422 -138 -546 -276 l-45 -50 -45 11 c-59 15
-81 14 -145 -5 -49 -14 -70 -32 -208 -168 l-154 -151 5 -42 c8 -71 24 -85 171
-149 75 -33 136 -64 136 -70 0 -6 7 -33 15 -60 27 -91 112 -166 206 -182 l39
-7 63 -140 c57 -128 65 -142 99 -158 31 -15 44 -17 71 -8 39 13 305 277 332
330 23 46 29 128 13 175 l-14 38 63 60 c177 171 283 458 283 768 0 99 -1 100
-138 99 -64 -1 -155 -7 -201 -15z m255 -163 c-15 -231 -79 -419 -191 -562 -45
-57 -522 -455 -533 -444 -4 4 -16 25 -27 48 -18 39 -24 43 -75 53 -111 22
-163 73 -177 174 l-8 55 -62 30 -62 30 208 237 c115 131 233 258 262 284 132
113 366 190 588 193 l84 1 -7 -99z"/>
<path d="M1380 1671 c-77 -25 -118 -62 -151 -135 -24 -56 -22 -131 5 -183 l15
-30 -77 -76 -77 -76 -109 -3 c-91 -3 -111 -6 -120 -20 -8 -13 -8 -23 0 -35 9
-15 29 -19 108 -21 l96 -3 0 -93 c0 -101 9 -120 52 -114 22 3 23 7 26 114 l3
110 77 77 78 78 40 -17 c54 -23 141 -21 190 4 82 42 124 113 124 207 0 84 -48
163 -123 202 -35 18 -122 26 -157 14z m136 -96 c89 -58 84 -203 -8 -251 -95
-49 -204 10 -215 117 -12 115 126 198 223 134z"/>
<path d="M527 889 c-58 -50 -103 -140 -119 -235 -10 -64 -10 -75 5 -98 14 -20
15 -31 7 -46 -24 -45 29 -103 75 -82 20 9 31 8 54 -6 66 -37 249 25 327 111
38 43 45 56 42 86 -3 33 -8 39 -70 71 -83 44 -120 79 -160 150 -17 30 -38 63
-46 73 -25 29 -65 21 -115 -24z"/>
<path d="M226 512 c-45 -47 -57 -64 -52 -80 4 -12 16 -24 28 -28 30 -9 140
100 136 136 -2 18 -10 26 -28 28 -19 2 -39 -11 -84 -56z"/>
<path d="M227 272 c-64 -65 -117 -126 -117 -134 0 -23 27 -41 53 -35 12 4 71
56 130 116 93 94 108 114 105 138 -2 21 -9 29 -28 31 -21 2 -47 -19 -143 -116z"/>
<path d="M461 256 c-82 -82 -102 -108 -99 -127 2 -17 10 -25 28 -27 21 -2 45
17 128 101 56 57 102 111 102 119 0 19 -20 38 -40 38 -8 0 -62 -47 -119 -104z"/>
</g>
</svg>
