<?xml version="1.0" standalone="no"?>
<!DOCTYPE svg PUBLIC "-//W3C//DTD SVG 20010904//EN"
 "http://www.w3.org/TR/2001/REC-SVG-20010904/DTD/svg10.dtd">
<svg version="1.0" xmlns="http://www.w3.org/2000/svg"
 width="200.000000pt" height="200.000000pt" viewBox="0 0 200.000000 200.000000"
 preserveAspectRatio="xMidYMid meet">

<g transform="translate(0.000000,200.000000) scale(0.100000,-0.100000)"
fill="currentColor" stroke="none">
<path d="M91 1606 c-8 -9 -11 -83 -9 -246 3 -252 -1 -231 56 -259 15 -7 17
-37 22 -344 5 -311 6 -336 24 -356 27 -30 70 -27 95 5 20 26 21 38 21 354 0
344 0 343 45 352 19 3 20 12 23 249 2 221 1 247 -14 253 -38 15 -44 -9 -44
-184 0 -170 -3 -185 -37 -173 -10 4 -13 47 -13 173 0 136 -3 170 -15 180 -8 7
-22 10 -30 6 -13 -4 -15 -33 -15 -174 0 -136 -3 -172 -15 -182 -30 -25 -35 0
-35 169 0 166 -5 191 -36 191 -6 0 -17 -6 -23 -14z"/>
<path d="M1795 1600 c-14 -16 -28 -79 -57 -258 -20 -130 -37 -253 -38 -273 0
-38 20 -64 55 -71 19 -3 20 -13 25 -296 5 -276 6 -294 24 -308 27 -19 70 -18
89 4 15 17 17 73 17 604 0 554 -1 586 -18 601 -26 23 -75 21 -97 -3z"/>
<path d="M906 1554 c-326 -73 -528 -398 -446 -718 28 -112 73 -190 160 -277
125 -127 253 -175 441 -167 156 7 272 56 381 163 112 109 166 232 175 395 6
110 -10 189 -58 288 -117 239 -395 374 -653 316z m114 -61 c0 -21 -34 -93 -44
-93 -6 1 -38 7 -71 15 -33 8 -76 15 -94 15 -50 0 -28 18 56 46 65 22 153 32
153 17z m197 -24 c29 -11 80 -39 114 -61 l61 -41 -68 -68 -67 -67 -62 47 c-34
26 -82 58 -107 70 l-46 22 26 65 26 65 35 -6 c19 -4 58 -15 88 -26z m-308
-121 l43 -13 -47 -63 -48 -64 -64 64 c-36 35 -69 72 -75 82 -10 18 -7 19 68
13 44 -4 99 -12 123 -19z m-139 -209 c-19 -16 -49 -38 -67 -49 -29 -17 -32
-17 -38 -2 -4 9 -9 67 -12 127 l-5 110 78 -78 79 -78 -35 -30z m309 140 c31
-16 72 -43 91 -60 l34 -29 -79 -80 c-44 -44 -84 -80 -90 -80 -6 0 -39 29 -74
64 l-64 65 51 67 c29 37 52 71 52 75 0 16 21 10 79 -22z m395 -21 c40 -61 73
-153 78 -217 l3 -44 -50 -18 c-27 -9 -55 -18 -62 -18 -6 -1 -25 27 -41 62 -16
34 -46 84 -66 112 l-36 50 62 62 c34 35 66 63 70 63 4 0 23 -24 42 -52z m-881
-108 c4 -36 9 -74 13 -86 5 -18 -1 -24 -35 -38 -65 -26 -69 -23 -60 34 10 62
16 83 42 138 24 53 32 43 40 -48z m746 -144 c17 -35 31 -68 31 -73 0 -5 -13
-17 -30 -26 -16 -10 -50 -33 -74 -52 l-44 -33 -73 74 -72 75 84 85 84 85 31
-36 c17 -19 46 -64 63 -99z m-419 39 l65 -66 -88 -86 c-84 -83 -88 -85 -107
-68 -16 14 -100 164 -100 178 0 2 26 20 59 40 32 20 64 43 71 52 20 24 32 19
100 -50z m-261 -128 c17 -35 46 -83 65 -108 l35 -46 -65 -64 -65 -64 -20 25
c-50 63 -104 204 -97 256 2 21 12 29 53 44 28 9 53 18 57 19 4 0 20 -27 37
-62z m438 -58 c37 -39 70 -75 71 -80 2 -5 -12 -27 -30 -48 -19 -20 -43 -52
-54 -69 -10 -18 -22 -32 -27 -32 -18 0 -127 63 -165 96 l-40 34 87 85 c47 46
87 85 88 85 0 0 32 -32 70 -71z m450 21 c-5 -45 -55 -176 -63 -167 -2 2 -9 39
-15 83 -6 43 -11 83 -12 88 -2 7 70 42 92 45 2 1 1 -22 -2 -49z m-140 -147 l4
-108 -71 73 c-39 40 -68 77 -65 83 14 22 110 78 119 69 5 -5 11 -58 13 -117z
m-95 -151 c-50 -4 -182 16 -182 27 0 11 30 53 63 88 l30 32 67 -72 68 -72 -46
-3z m-452 87 c30 -23 81 -54 112 -70 l57 -29 -22 -60 -22 -61 -39 7 c-63 10
-146 42 -197 75 -80 51 -80 52 -13 120 32 32 61 59 64 59 3 0 30 -18 60 -41z
m316 -138 c33 -6 70 -12 84 -14 23 -3 22 -5 -13 -21 -50 -22 -153 -48 -177
-44 -18 3 -18 4 2 51 13 29 26 46 33 43 7 -2 39 -9 71 -15z"/>
</g>
</svg>
